<?xml version="1.0" standalone="no"?>
<!DOCTYPE svg PUBLIC "-//W3C//DTD SVG 20010904//EN"
 "http://www.w3.org/TR/2001/REC-SVG-20010904/DTD/svg10.dtd">
<svg version="1.0" xmlns="http://www.w3.org/2000/svg"
 width="441.000000pt" height="566.000000pt" viewBox="0 0 441.000000 566.000000"
 preserveAspectRatio="xMidYMid meet">

<g transform="translate(0.000000,566.000000) scale(0.100000,-0.100000)"
fill="#000000" stroke="none">
<path d="M2101 5207 c-28 -14 -40 -32 -397 -643 -145 -248 -264 -460 -264
-470 0 -22 9 -37 200 -364 79 -135 199 -342 268 -460 180 -310 168 -295 227
-295 l50 0 41 70 c23 39 146 250 274 470 128 220 253 433 277 472 24 40 45 86
45 102 1 16 -12 51 -27 78 -39 68 -191 328 -305 523 -53 91 -130 221 -170 290
-40 69 -76 127 -80 130 -4 3 -19 24 -34 48 -15 23 -38 47 -52 52 -30 12 -24
12 -53 -3z m119 -389 c47 -79 95 -163 108 -187 13 -24 39 -67 58 -97 19 -29
34 -55 34 -58 0 -3 44 -78 97 -168 139 -232 130 -207 96 -270 -16 -29 -55 -95
-86 -147 -31 -52 -57 -95 -57 -97 0 -1 -46 -81 -102 -176 -57 -96 -111 -187
-120 -204 -9 -16 -38 -66 -64 -111 -26 -46 -52 -83 -57 -83 -5 0 -6 7 -3 16 3
8 2 13 -3 10 -12 -8 -134 201 -125 215 4 7 3 9 -3 6 -15 -9 -54 59 -47 81 4
11 3 13 -3 5 -9 -12 -17 -1 -101 147 -44 79 -122 210 -174 297 l-56 92 40 68
c22 37 49 84 61 103 11 19 28 49 38 65 10 17 38 66 64 110 25 44 70 121 99
170 30 50 64 108 76 130 56 101 132 225 138 225 4 0 46 -64 92 -142z"/>
<path d="M2906 3978 c-22 -21 -84 -123 -226 -378 -50 -89 -150 -266 -303 -535
-50 -88 -108 -196 -130 -240 -38 -79 -107 -194 -117 -194 -3 -1 -28 41 -56 92
-27 50 -130 234 -228 407 -99 173 -226 398 -284 500 -107 190 -175 296 -202
317 -23 19 -56 15 -84 -9 -14 -13 -60 -86 -104 -163 -43 -77 -138 -243 -209
-370 -539 -949 -525 -925 -519 -959 13 -69 -119 -64 1714 -67 l1654 -4 24 28
c13 15 24 40 24 55 0 16 -40 98 -96 197 -53 94 -164 289 -246 435 -83 146
-191 337 -241 425 -156 277 -180 318 -228 390 -41 62 -79 95 -109 95 -5 0 -20
-10 -34 -22z m89 -305 c20 -38 45 -77 54 -88 24 -27 591 -1028 591 -1043 0
-13 -925 -17 -1211 -5 l-157 6 17 31 c10 17 57 101 106 186 48 85 118 209 155
275 324 574 399 705 405 705 2 0 20 -30 40 -67z m-1636 -25 c19 -35 48 -83 66
-108 18 -25 61 -97 97 -160 36 -63 140 -245 230 -405 228 -402 240 -424 235
-432 -5 -8 -312 -9 -986 -5 -322 2 -343 3 -336 19 6 16 175 319 360 643 39 69
120 212 180 318 60 105 112 192 115 192 3 0 21 -28 39 -62z"/>
<path d="M546 2053 c-10 -10 -7 -223 4 -223 5 0 11 44 12 98 l3 97 59 -98 c32
-54 64 -96 70 -94 6 2 33 42 61 90 27 47 53 86 57 87 4 0 9 -38 10 -85 4 -124
22 -112 26 18 2 100 1 107 -16 107 -14 0 -36 -28 -76 -95 -31 -52 -60 -95 -64
-95 -4 0 -33 43 -65 95 -60 97 -70 109 -81 98z"/>
<path d="M3339 2030 c-5 -4 10 -7 35 -8 25 -1 47 1 49 5 6 10 -69 12 -84 3z"/>
<path d="M1107 1973 c-11 -10 -8 -131 3 -138 6 -4 10 22 10 69 0 76 -1 82 -13
69z"/>
<path d="M1379 1974 c0 -5 -2 -27 -5 -49 -5 -48 4 -97 17 -89 5 3 9 27 9 53 0
54 20 81 61 81 38 0 49 -19 49 -82 0 -32 4 -58 10 -58 17 0 12 116 -6 134 -17
18 -71 21 -94 6 -9 -5 -19 -5 -27 2 -7 6 -13 7 -14 2z"/>
<path d="M1788 1950 c-24 -25 -29 -36 -24 -58 11 -43 41 -62 101 -62 37 0 57
5 66 17 13 15 12 16 -6 8 -60 -25 -135 -8 -135 30 0 12 16 15 80 15 72 0 80 2
80 19 0 30 -47 61 -92 61 -31 0 -46 -7 -70 -30z m113 10 c10 -6 19 -20 19 -30
0 -18 -7 -20 -65 -20 -50 0 -65 3 -65 14 0 35 70 58 111 36z"/>
<path d="M2233 1963 c-14 -9 -23 -11 -23 -4 0 6 -4 11 -10 11 -6 0 -10 -30
-10 -71 0 -44 4 -68 10 -64 6 3 10 25 10 48 0 54 8 65 56 82 31 11 34 14 14
14 -14 0 -35 -7 -47 -16z"/>
<path d="M2529 1960 c-13 -10 -19 -19 -13 -20 6 0 17 7 24 15 14 16 67 20 89
6 19 -12 7 -39 -21 -44 -16 -3 -14 -4 7 -3 26 1 30 -2 27 -24 -3 -32 -27 -50
-67 -50 -55 0 -75 41 -27 58 18 7 21 11 9 11 -46 2 -73 -39 -45 -67 15 -15 82
-16 108 -2 13 7 21 7 25 0 3 -5 10 -10 15 -10 12 0 2 121 -12 137 -17 20 -92
16 -119 -7z"/>
<path d="M2925 1955 c-43 -42 -24 -106 38 -128 9 -4 17 -10 17 -16 0 -5 10
-11 22 -15 27 -6 15 -22 -22 -29 -17 -3 -13 -5 10 -4 43 2 55 32 18 46 l-23 9
27 7 c27 7 70 45 51 45 -6 0 -16 -7 -23 -15 -18 -22 -76 -19 -100 5 -41 41
-10 110 49 110 16 0 36 -7 45 -15 8 -8 21 -15 28 -15 7 1 3 9 -11 20 -34 29
-95 27 -126 -5z"/>
<path d="M3318 1969 c-10 -5 -18 -15 -18 -21 0 -6 11 -3 25 6 29 19 81 21 92
4 4 -7 9 -29 10 -49 3 -49 -22 -71 -74 -67 -31 2 -39 7 -41 26 -2 15 4 25 20
32 21 9 20 10 -7 4 -16 -3 -33 -10 -36 -16 -8 -13 0 -40 15 -50 16 -11 88 -9
106 2 9 5 19 5 27 -2 10 -8 13 3 13 55 0 55 -3 68 -19 77 -25 13 -91 13 -113
-1z"/>
<path d="M3716 1959 c-19 -15 -26 -30 -26 -54 0 -49 31 -75 91 -75 60 0 90 23
91 69 2 70 -95 108 -156 60z m114 -7 c48 -39 16 -112 -48 -112 -46 0 -72 24
-72 66 0 58 72 85 120 46z"/>
<path d="M3378 1913 c6 -2 18 -2 25 0 6 3 1 5 -13 5 -14 0 -19 -2 -12 -5z"/>
<path d="M525 1377 c-4 -112 -4 -218 0 -235 l7 -32 124 0 124 0 0 79 0 78 110
5 c88 5 119 10 157 29 65 32 96 80 90 137 -6 52 -35 87 -97 116 -41 19 -66 21
-276 24 l-232 4 -7 -205z m355 83 c40 -40 16 -80 -53 -87 l-47 -6 0 57 0 56
40 0 c27 0 47 -7 60 -20z"/>
<path d="M1210 1345 l0 -235 249 0 249 0 7 30 c4 17 3 44 0 61 l-7 32 -118 -5
c-65 -3 -124 -2 -130 2 -7 4 -10 18 -8 31 3 24 5 24 121 27 l117 3 0 54 0 54
-117 3 -118 3 -3 27 -3 27 128 3 128 3 0 55 0 55 -247 3 -248 2 0 -235z"/>
<path d="M1790 1344 l0 -235 223 3 c240 4 269 9 348 64 115 79 108 274 -11
347 -72 43 -160 57 -372 57 l-188 0 0 -236z m341 121 c38 -20 49 -50 49 -131
0 -59 -3 -68 -29 -95 -23 -23 -39 -29 -70 -29 l-41 0 0 128 c0 71 3 132 7 135
11 12 53 8 84 -8z"/>
<path d="M2530 1346 l0 -237 123 3 122 3 3 83 3 82 30 0 c46 0 66 -16 73 -57
4 -21 12 -55 17 -75 l10 -38 248 0 248 0 16 40 16 41 97 -3 97 -3 12 -35 12
-35 131 -3 132 -3 -10 23 c-5 13 -51 118 -103 233 l-94 210 -167 3 -167 2 -38
-82 c-48 -104 -111 -245 -146 -322 -30 -71 -41 -66 -56 25 -16 87 -32 115 -74
129 -44 15 -44 23 0 39 94 34 100 137 11 184 -38 20 -58 22 -293 25 l-253 4 0
-236z m350 114 c11 -11 20 -24 20 -30 0 -24 -41 -50 -80 -50 l-40 0 0 50 0 50
40 0 c27 0 47 -7 60 -20z m688 -69 c12 -43 22 -83 22 -90 0 -11 -101 -16 -112
-6 -4 4 24 101 47 163 10 27 23 8 43 -67z"/>
<path d="M522 678 l3 -233 85 0 85 0 5 160 c3 101 8 153 14 142 4 -10 23 -82
40 -160 l31 -142 97 -3 97 -3 10 38 c5 21 19 81 31 133 38 167 45 166 48 -12
l3 -158 84 0 84 0 3 203 c2 111 2 217 0 235 l-3 33 -147 -3 -147 -3 -26 -130
c-15 -71 -30 -129 -35 -128 -5 1 -19 51 -31 110 -13 59 -25 118 -28 131 -5 22
-8 22 -155 22 l-150 0 2 -232z"/>
<path d="M1332 678 l3 -233 208 -3 207 -2 0 59 0 60 -107 3 c-108 3 -108 3
-108 28 0 25 1 25 98 28 l97 3 0 54 c0 62 6 59 -107 55 -71 -2 -93 6 -93 35 0
30 15 35 121 35 l89 0 0 55 0 55 -205 0 -205 0 2 -232z"/>
<path d="M1820 675 l0 -235 80 0 79 0 3 135 c2 77 7 135 13 136 5 0 32 -59 61
-133 l52 -133 123 -3 c91 -2 124 1 131 10 4 7 8 113 8 236 l0 222 -85 0 -85 0
0 -136 c0 -95 -3 -135 -11 -132 -6 2 -35 62 -64 133 l-53 130 -126 3 -126 3 0
-236z"/>
<path d="M2452 678 l3 -233 103 -3 102 -3 0 236 0 235 -105 0 -105 0 2 -232z"/>
<path d="M2750 675 l0 -235 85 0 85 0 0 142 c0 95 3 139 10 132 6 -6 34 -68
63 -140 l54 -129 126 -3 127 -3 0 236 0 235 -85 0 -85 0 0 -142 c-1 -166 1
-166 -76 25 l-48 117 -128 0 -128 0 0 -235z"/>
<path d="M3505 893 c-4 -10 -27 -72 -51 -138 -25 -66 -49 -129 -54 -140 -10
-23 -60 -164 -60 -171 0 -3 44 -3 98 -2 l97 3 11 35 12 35 82 0 83 0 12 -35
12 -35 98 -3 c54 -1 102 1 106 5 4 4 -24 91 -62 193 -38 102 -76 204 -85 228
l-16 42 -138 0 c-122 0 -139 -2 -145 -17z m170 -178 c9 -41 14 -79 10 -85 -6
-10 -78 -14 -87 -4 -5 5 28 150 39 166 10 18 22 -6 38 -77z"/>
</g>
</svg>
